<svg xmlns="http://www.w3.org/2000/svg" xmlns:xlink="http://www.w3.org/1999/xlink" width="50" zoomAndPan="magnify" viewBox="0 0 37.5 37.499999" height="50" preserveAspectRatio="xMidYMid meet" version="1.0"><defs><clipPath id="2dece8c13b"><path d="M 0.417969 1.300781 L 36.683594 1.300781 L 36.683594 35.34375 L 0.417969 35.34375 Z M 0.417969 1.300781 " clip-rule="nonzero"/></clipPath></defs><g clip-path="url(#2dece8c13b)"><path fill="#32cd32" d="M 17.898438 1.300781 C 8.410156 1.300781 0.695312 9.015625 0.695312 18.5 C 0.695312 27.988281 8.410156 35.703125 17.898438 35.703125 C 27.382812 35.703125 35.097656 27.988281 35.097656 18.5 C 35.097656 16.566406 34.761719 14.707031 34.167969 12.96875 L 31.382812 15.753906 C 31.5625 16.640625 31.660156 17.5625 31.660156 18.5 C 31.660156 26.089844 25.484375 32.265625 17.898438 32.265625 C 10.308594 32.265625 4.136719 26.089844 4.136719 18.5 C 4.136719 10.914062 10.308594 4.738281 17.898438 4.738281 C 20.707031 4.738281 23.320312 5.589844 25.5 7.042969 L 27.964844 4.578125 C 25.128906 2.523438 21.65625 1.300781 17.898438 1.300781 Z M 33.882812 3.523438 L 16.175781 21.230469 L 10.511719 15.566406 L 8.078125 17.996094 L 16.175781 26.09375 L 36.316406 5.957031 Z M 33.882812 3.523438 " fill-opacity="1" fill-rule="nonzero"/></g></svg>