<?xml version="1.0" encoding="UTF-8"?>
<svg id="Layer_1" xmlns="http://www.w3.org/2000/svg" version="1.1" viewBox="0 0 1280 720">
  <!-- Generator: Adobe Illustrator 29.5.0, SVG Export Plug-In . SVG Version: 2.1.0 Build 137)  -->
  <defs>
    <style>
      .st0 {
        fill: #f60;
      }

      .st1 {
        fill: #1e1e1e;
      }

      .st2 {
        fill: #059e63;
      }
    </style>
  </defs>
  <g>
    <path class="st1" d="M.11,663.87v-132.11h20.38v112.48h61.9v19.63H.11Z"/>
    <path class="st1" d="M120.89,542.9c-4.15,0-7.36-1.07-9.62-3.21-2.26-2.14-3.4-5.15-3.4-9.06,0-3.65,1.16-6.6,3.5-8.87,2.33-2.27,5.5-3.4,9.53-3.4s7.36,1.07,9.63,3.21c2.26,2.14,3.39,5.16,3.39,9.06,0,3.65-1.16,6.6-3.49,8.87-2.33,2.26-5.5,3.39-9.53,3.39ZM111.46,663.87v-99.07h19.44v99.07h-19.44Z"/>
    <path class="st1" d="M160.71,663.87v-99.07h19.44v20.38l-3.39,2.27c1.25-4.4,3.71-8.46,7.36-12.18,3.65-3.71,7.99-6.72,13.02-9.06,5.03-2.33,10.19-3.49,15.48-3.49,7.55,0,13.84,1.48,18.87,4.44,5.03,2.95,8.81,7.45,11.33,13.49,2.52,6.04,3.78,13.65,3.78,22.83v60.39h-19.44v-59.07c0-5.66-.76-10.35-2.27-14.06-1.51-3.71-3.84-6.41-6.98-8.12-3.15-1.7-7.05-2.42-11.7-2.17-3.78,0-7.24.6-10.38,1.79-3.15,1.19-5.89,2.87-8.21,5-2.33,2.14-4.15,4.62-5.47,7.46-1.32,2.83-1.98,5.88-1.98,9.15v60.01h-19.44Z"/>
    <path class="st1" d="M314.33,665.76c-9.06,0-17.14-2.23-24.25-6.7-7.11-4.47-12.74-10.57-16.89-18.31-4.16-7.74-6.23-16.58-6.23-26.52s2.04-18.78,6.13-26.52c4.09-7.74,9.65-13.84,16.7-18.31,7.05-4.46,15.04-6.7,23.97-6.7,4.91,0,9.65.79,14.25,2.36,4.59,1.58,8.71,3.71,12.36,6.42,3.65,2.7,6.51,5.66,8.59,8.87,2.08,3.21,3.11,6.45,3.11,9.72l-5.66.38v-66.24h19.44v139.65h-19.44v-23.59h3.78c0,3.03-1.01,6.01-3.02,8.97-2.01,2.96-4.69,5.69-8.02,8.21-3.34,2.52-7.17,4.53-11.51,6.04-4.34,1.51-8.78,2.26-13.31,2.26ZM316.97,648.96c5.91,0,11.14-1.51,15.67-4.53,4.52-3.02,8.08-7.14,10.66-12.36,2.58-5.22,3.87-11.17,3.87-17.83s-1.29-12.61-3.87-17.83c-2.58-5.22-6.13-9.34-10.66-12.36-4.53-3.02-9.76-4.53-15.67-4.53s-11.14,1.51-15.66,4.53c-4.53,3.02-8.08,7.14-10.67,12.36-2.58,5.22-3.87,11.17-3.87,17.83s1.29,12.62,3.87,17.83c2.58,5.22,6.13,9.34,10.67,12.36,4.52,3.02,9.75,4.53,15.66,4.53Z"/>
    <path class="st1" d="M409.25,707.27l20-46.23.19,15.47-49.45-111.72h22.65l30.95,72.84c.63,1.26,1.39,3.18,2.26,5.75.88,2.58,1.63,5.13,2.27,7.65l-4.91,1.13c1-2.64,1.98-5.28,2.92-7.93.94-2.64,1.86-5.28,2.73-7.93l25.86-71.52h23.03l-40.77,99.07-16.79,43.4h-20.95Z"/>
    <path class="st1" d="M560.04,663.87v-132.11h56.24c7.55,0,14.5,1.86,20.85,5.57,6.36,3.71,11.42,8.75,15.19,15.1,3.78,6.35,5.66,13.49,5.66,21.42,0,7.17-1.89,13.84-5.66,20-3.77,6.17-8.8,11.1-15.09,14.82-6.29,3.71-13.28,5.57-20.95,5.57h-35.85v49.63h-20.38ZM580.42,594.61h37.74c3.65,0,6.92-.91,9.81-2.74,2.89-1.82,5.16-4.34,6.8-7.54,1.63-3.21,2.45-6.76,2.45-10.66,0-4.4-1.04-8.27-3.11-11.61-2.08-3.33-4.97-5.94-8.68-7.83-3.71-1.89-7.89-2.83-12.55-2.83h-32.46v43.22ZM638.54,663.87l-33.59-59.64,20.94-4.72,37.37,64.54-24.72-.19Z"/>
    <path class="st1" d="M720.64,665.76c-8.18,0-15.64-2.26-22.37-6.8-6.73-4.53-12.11-10.69-16.14-18.5-4.02-7.8-6.04-16.61-6.04-26.42s2.05-18.78,6.13-26.52c4.09-7.74,9.63-13.8,16.61-18.21,6.99-4.4,14.82-6.6,23.5-6.6,5.15,0,9.88.76,14.15,2.26,4.28,1.51,8.02,3.62,11.23,6.32,3.2,2.71,5.85,5.82,7.93,9.34,2.07,3.52,3.36,7.3,3.86,11.32l-4.34-1.51v-25.67h19.63v99.07h-19.63v-23.59l4.53-1.32c-.76,3.39-2.29,6.7-4.62,9.9-2.33,3.21-5.29,6.08-8.87,8.59-3.58,2.52-7.55,4.53-11.89,6.04-4.34,1.51-8.9,2.26-13.68,2.26ZM725.73,647.83c5.92,0,11.14-1.44,15.67-4.34,4.52-2.89,8.08-6.89,10.66-11.98,2.58-5.1,3.87-10.91,3.87-17.46s-1.29-12.14-3.87-17.17c-2.57-5.03-6.13-8.99-10.66-11.89-4.53-2.9-9.75-4.34-15.67-4.34s-10.91,1.44-15.38,4.34c-4.46,2.89-7.99,6.86-10.56,11.89-2.58,5.03-3.87,10.76-3.87,17.17s1.29,12.36,3.87,17.46c2.57,5.09,6.1,9.09,10.56,11.98,4.47,2.9,9.6,4.34,15.38,4.34Z"/>
    <path class="st1" d="M801.6,663.87v-99.07h19.63v21.13l-3.58,2.26c1.01-3.27,2.61-6.41,4.81-9.43,2.21-3.02,4.91-5.69,8.12-8.02,3.21-2.33,6.67-4.18,10.38-5.57,3.71-1.39,7.52-2.08,11.42-2.08,5.66,0,10.63.95,14.9,2.83,4.28,1.89,7.81,4.72,10.57,8.49,2.76,3.77,4.78,8.49,6.04,14.15l-3.02-.76,1.32-3.21c1.39-2.89,3.31-5.62,5.76-8.21,2.45-2.58,5.25-4.87,8.4-6.89,3.15-2.01,6.48-3.58,10-4.72,3.52-1.14,6.98-1.7,10.38-1.7,7.42,0,13.56,1.51,18.4,4.53,4.84,3.02,8.49,7.61,10.95,13.77,2.45,6.17,3.68,13.84,3.68,23.03v59.45h-19.63v-58.31c0-5.66-.72-10.28-2.17-13.87-1.45-3.58-3.62-6.26-6.51-8.02-2.89-1.76-6.6-2.64-11.14-2.64-3.52,0-6.83.6-9.91,1.79-3.08,1.19-5.75,2.87-8.01,5-2.27,2.14-4.03,4.62-5.29,7.46-1.26,2.83-1.89,5.94-1.89,9.34v59.26h-19.63v-58.69c0-5.16-.76-9.53-2.26-13.12-1.51-3.58-3.71-6.32-6.6-8.21-2.9-1.88-6.42-2.83-10.57-2.83-3.53,0-6.79.6-9.81,1.79-3.02,1.19-5.66,2.83-7.93,4.91-2.27,2.08-4.03,4.53-5.29,7.36-1.26,2.83-1.89,5.89-1.89,9.15v59.64h-19.63Z"/>
    <path class="st1" d="M988.43,542.9c-4.15,0-7.36-1.07-9.62-3.21-2.26-2.14-3.4-5.15-3.4-9.06,0-3.65,1.16-6.6,3.5-8.87,2.33-2.27,5.5-3.4,9.53-3.4s7.36,1.07,9.63,3.21c2.26,2.14,3.39,5.16,3.39,9.06,0,3.65-1.16,6.6-3.49,8.87-2.33,2.26-5.5,3.39-9.53,3.39ZM978.99,663.87v-99.07h19.44v99.07h-19.44Z"/>
    <path class="st1" d="M1028.25,663.87v-99.07h19.63v31.14l-1.89-7.55c1.39-4.78,3.74-9.12,7.07-13.02,3.34-3.9,7.18-6.98,11.52-9.25,4.34-2.26,8.83-3.39,13.49-3.39,2.14,0,4.18.19,6.13.57,1.94.37,3.49.82,4.62,1.32l-5.1,21.13c-1.51-.62-3.18-1.16-5-1.6-1.83-.44-3.62-.66-5.38-.66-3.39,0-6.64.66-9.72,1.98-3.08,1.32-5.79,3.15-8.12,5.47-2.33,2.33-4.18,5.03-5.57,8.12-1.39,3.08-2.07,6.44-2.07,10.09v54.73h-19.63Z"/>
    <path class="st1" d="M1146.39,665.76c-10.19,0-19.21-2.17-27.08-6.51-7.87-4.34-14.03-10.29-18.5-17.83-4.47-7.55-6.7-16.23-6.7-26.05,0-7.8,1.25-14.91,3.77-21.32,2.51-6.42,6.01-11.99,10.47-16.7,4.47-4.72,9.81-8.36,16.04-10.94,6.23-2.58,12.99-3.87,20.29-3.87,6.42,0,12.39,1.23,17.93,3.68,5.54,2.45,10.35,5.82,14.43,10.1,4.09,4.28,7.24,9.34,9.44,15.19,2.2,5.85,3.24,12.24,3.11,19.16l-.19,8.3h-80.96l-4.34-15.48h68.51l-2.83,3.21v-4.52c-.37-4.16-1.76-7.86-4.15-11.14-2.39-3.27-5.41-5.85-9.06-7.74-3.65-1.89-7.61-2.83-11.89-2.83-6.79,0-12.52,1.29-17.17,3.87-4.65,2.58-8.18,6.35-10.57,11.32-2.39,4.97-3.58,11.1-3.58,18.4,0,6.92,1.45,12.93,4.34,18.02,2.89,5.1,6.99,9.03,12.27,11.8,5.29,2.76,11.39,4.15,18.3,4.15,4.91,0,9.47-.82,13.68-2.45,4.21-1.63,8.78-4.6,13.68-8.87l9.81,13.78c-3.02,3.02-6.7,5.66-11.04,7.93-4.34,2.26-8.94,4.06-13.78,5.38s-9.59,1.98-14.25,1.98Z"/>
    <path class="st1" d="M1206.59,663.87v-16.23l51.14-68.31v2.26h-51.14v-16.79h72.28v15.85l-50.39,67.37-.76-.95h52.28v16.8h-73.41Z"/>
  </g>
  <g>
    <g>
      <polygon class="st2" points="605.45 138.9 510.54 236.15 607.67 335.67 561.48 383.01 418.15 236.15 558.89 91.94 605.45 138.9"/>
      <polygon class="st0" points="861.96 421.05 813.72 470.46 721.32 375.79 717.38 371.93 674.3 329.3 682.02 321.4 764.85 321.4 765.75 322.39 769.52 326.34 861.96 421.05"/>
      <polygon class="st0" points="855.76 238.03 769.52 326.34 765.75 330.29 721.32 375.79 717.38 379.83 637.5 461.67 591.28 414.29 763.41 238.03 589.76 60.07 636.07 12.95 855.76 238.03"/>
    </g>
    <polygon class="st0" points="609.83 180.38 702.74 254.83 643.4 252.14 609.83 299.81 609.83 180.38"/>
  </g>
</svg>