<svg xmlns="http://www.w3.org/2000/svg" id="Layer_1" data-name="Layer 1" viewBox="0 0 698.44 720">
  <defs>
    <style>
      .cls-1 {
        fill: #f60;
      }

      .cls-2 {
        fill: #059e63;
      }
    </style>
  </defs>
  <g>
    <polygon class="cls-2" points="294.75 198.21 145.39 351.26 298.25 507.88 225.56 582.37 0 351.26 221.49 124.31 294.75 198.21"/>
    <polygon class="cls-1" points="698.44 642.24 622.52 720 477.12 571.01 470.9 564.94 403.11 497.86 415.25 485.43 545.61 485.43 547.03 486.98 552.96 493.19 698.44 642.24"/>
    <polygon class="cls-1" points="688.69 354.22 552.96 493.19 547.03 499.41 477.12 571.01 470.9 577.37 345.2 706.18 272.47 631.6 543.36 354.22 270.06 74.15 342.94 0 688.69 354.22"/>
  </g>
  <polygon class="cls-1" points="301.65 263.49 447.86 380.65 354.49 376.42 301.65 451.45 301.65 263.49"/>
</svg>